<svg width="101" height="36" viewBox="0 0 101 36" fill="none" xmlns="http://www.w3.org/2000/svg">
<path d="M59.8996 21.8581L59.174 21.708C58.2413 25.5115 55.4947 27.3632 51.3488 27.3632C44.4047 27.3632 43.5238 20.9573 43.5238 16.203V15.2021H59.9513C59.9513 9.1465 56.9974 4.69238 49.5351 4.69238C43.7311 4.69238 38.5488 8.34572 38.5488 16.6033C38.5488 22.6089 42.5909 28.4142 50.3124 28.4142C55.6501 28.4142 58.9149 26.0621 59.8996 21.8582V21.8581ZM55.0801 14.6014H43.5238C43.5755 9.24639 44.6638 5.34283 49.5351 5.34283C54.251 5.34283 55.0801 10.0972 55.0801 14.6014Z" fill="white"/>
<path d="M72.8782 27.7635V27.163L71.3235 27.113C68.8879 27.0129 68.4732 26.9629 68.4732 20.4569V9.64683C69.9761 6.59405 71.8417 5.39294 73.8109 5.39294C74.7437 5.39294 75.0547 5.74327 75.0547 6.0936C75.0547 6.99438 73.6036 7.19461 73.6036 8.94628C73.6036 10.2475 74.7437 11.1984 76.0911 11.1984C77.3348 11.1984 78.6822 10.4977 78.6822 8.54594C78.6822 6.19383 76.6093 4.69238 74.1737 4.69238C71.7381 4.69238 69.8206 5.99361 68.3697 8.74605V5.29294H60.8037V5.8935L61.8401 5.9435C63.7575 6.04361 64.1722 6.09361 64.1722 12.5996V20.4569C64.1722 26.9629 63.7576 27.0129 61.8401 27.113L60.8037 27.163V27.7635H72.8782Z" fill="white"/>
<path d="M81.7637 22.1584C81.7637 17.4041 84.614 16.3531 87.2051 16.3531C89.3298 16.3531 90.8844 16.8035 92.6464 17.5542V23.4095C91.5063 25.6616 89.1225 27.2631 86.8423 27.2631C84.1994 27.2631 81.7638 26.2121 81.7638 22.1584H81.7637ZM100.316 27.7635V27.163L99.2796 27.113C97.3622 27.0129 96.9475 26.9629 96.9475 20.4569V12.5496C96.9475 7.14461 91.9726 4.69238 86.8941 4.69238C81.7119 4.69238 78.8617 6.74427 78.8617 9.24661C78.8617 10.6979 79.95 11.749 81.6083 11.749C83.0075 11.749 84.1994 10.6979 84.1994 9.24661C84.1994 7.79527 83.2148 7.19472 83.2148 6.54417C83.2148 5.8435 84.1994 5.34305 86.946 5.34305C90.729 5.34305 92.6465 7.29483 92.6465 10.6979V16.9037C90.6254 16.053 88.9672 15.7026 86.4278 15.7026C80.1573 15.7026 76.9443 17.7045 76.9443 21.9084C76.9443 26.0122 80.5719 28.3143 85.4432 28.3143C89.4852 28.3143 91.5582 26.2123 92.75 24.3106V27.7637H100.316V27.7635Z" fill="white"/>
<path fill-rule="evenodd" clip-rule="evenodd" d="M5.56897 16.1995C4.78655 15.5813 4.12997 14.4222 4.63402 13.0231C5.84653 9.65731 8.31705 6.90878 11.5908 5.28402C15.042 3.57103 18.9228 3.24177 22.5183 4.35656C25.5624 5.3005 28.1489 7.20116 29.9471 9.78488C29.952 9.79183 29.9569 9.79912 29.9621 9.80663C30.5859 10.7271 29.681 11.8887 28.5868 11.5829C21.1821 9.51303 15.9418 12.5059 11.2385 15.1929L9.02447 16.4577C7.68566 17.2225 6.3616 16.8259 5.56908 16.1996L5.56897 16.1995ZM31.9629 27.3759C25.6612 32.0241 20.0082 31.8485 16.3748 30.8854C11.8762 29.6929 8.37579 26.7636 6.32538 23.7903C5.72313 22.917 6.11724 21.7317 7.13693 21.3697C9.28195 20.6084 11.2586 19.4788 13.1884 18.3762C17.4608 15.9353 21.4963 13.6304 27.1145 15.0308C28.3199 15.3313 29.1977 16.2549 29.4068 17.4413C29.6122 18.6071 29.1099 19.738 28.0962 20.3929C26.5459 21.3946 21.0673 24.4661 14.3088 22.9491C13.9822 22.8758 13.6507 23.0513 13.5415 23.3574C13.4273 23.677 13.5951 24.0253 13.9199 24.1514C17.8892 25.6928 21.5705 26.2945 24.8687 25.9388C28.0696 25.5935 30.7901 24.3409 32.7354 22.3167C35.9815 18.939 36.5764 13.9328 34.2509 9.56313C29.6043 0.831692 18.8815 -2.49295 9.84008 1.99424C0.949239 6.40688 -2.56651 16.9823 2.0026 25.5686C4.21588 29.7278 7.97413 32.8057 12.5849 34.2354C17.1954 35.665 22.1062 35.275 26.4132 33.1374C29.1105 31.7989 31.3858 30.0444 32.8203 28.1969C33.2449 27.6499 32.5254 26.9612 31.963 27.3761L31.9629 27.3759Z" fill="url(#paint0_linear_4463_2530)"/>
<defs>
<linearGradient id="paint0_linear_4463_2530" x1="6.8141" y1="31.4769" x2="28.7013" y2="5.96093" gradientUnits="userSpaceOnUse">
<stop stop-color="#3C9A76"/>
<stop offset="1" stop-color="#76BA86"/>
</linearGradient>
</defs>
</svg>